<svg width="7" height="7" viewBox="0 0 7 7" fill="none" xmlns="http://www.w3.org/2000/svg">
<path fill-rule="evenodd" clip-rule="evenodd" d="M2.04167 2.27176V3.2926L0.875 4.1676V5.77176L2.04167 5.77176C2.04167 6.09393 2.30283 6.35509 2.625 6.35509H3.20833V6.64676H3.79167V6.35509H4.375C4.69717 6.35509 4.95833 6.09393 4.95833 5.77176L6.125 5.77176V4.1676L4.95833 3.29259V2.27176C4.95833 1.35124 4.40021 0.230095 3.5 0.230095C2.59979 0.230095 2.04167 1.35124 2.04167 2.27176ZM3.79167 5.77176H4.375V2.85509V2.27176C4.375 1.63221 3.9674 0.813428 3.5 0.813428C3.0326 0.813428 2.625 1.63221 2.625 2.27176V2.85509V5.77176H3.20833V4.02176H3.79167V5.77176ZM1.45833 4.45926L2.04167 4.02176V5.18843H1.45833V4.45926ZM4.95833 5.18843V4.02176L5.54167 4.45926V5.18843H4.95833ZM3.5 3.14676C3.17783 3.14676 2.91667 2.88559 2.91667 2.56343C2.91667 2.24126 3.17783 1.98009 3.5 1.98009C3.82217 1.98009 4.08333 2.24126 4.08333 2.56343C4.08333 2.88559 3.82217 3.14676 3.5 3.14676Z" fill="white"/>
</svg>
