<svg width="7" height="7" viewBox="0 0 7 7" fill="none" xmlns="http://www.w3.org/2000/svg">
<path fill-rule="evenodd" clip-rule="evenodd" d="M3.5 6.64676C1.72808 6.64676 0.291664 5.21034 0.291664 3.43843C0.291664 1.66651 1.72808 0.230095 3.5 0.230095C5.27191 0.230095 6.70833 1.66651 6.70833 3.43843C6.70833 5.21034 5.27191 6.64676 3.5 6.64676ZM3.5 6.06343C4.94975 6.06343 6.125 4.88818 6.125 3.43843C6.125 1.98868 4.94975 0.813428 3.5 0.813428C2.05025 0.813428 0.874997 1.98868 0.874997 3.43843C0.874997 4.88818 2.05025 6.06343 3.5 6.06343ZM3.79166 4.31343C3.79166 4.79668 4.18341 5.18843 4.66666 5.18843C5.14991 5.18843 5.54166 4.79668 5.54166 4.31343C5.54166 3.83018 5.14991 3.43843 4.66666 3.43843C4.18341 3.43843 3.79166 3.83018 3.79166 4.31343ZM4.66666 4.60509C4.82775 4.60509 4.95833 4.47451 4.95833 4.31343C4.95833 4.15234 4.82775 4.02176 4.66666 4.02176C4.50558 4.02176 4.375 4.15234 4.375 4.31343C4.375 4.47451 4.50558 4.60509 4.66666 4.60509ZM1.45833 2.56343C1.45833 3.04668 1.85008 3.43843 2.33333 3.43843C2.81658 3.43843 3.20833 3.04668 3.20833 2.56343C3.20833 2.08018 2.81658 1.68843 2.33333 1.68843C1.85008 1.68843 1.45833 2.08018 1.45833 2.56343ZM2.33333 2.85509C2.49441 2.85509 2.625 2.72451 2.625 2.56343C2.625 2.40235 2.49441 2.27176 2.33333 2.27176C2.17225 2.27176 2.04166 2.40235 2.04166 2.56343C2.04166 2.72451 2.17225 2.85509 2.33333 2.85509ZM2.9511 5.18843L4.7011 1.68843H4.04891L2.29891 5.18843H2.9511Z" fill="white"/>
<path d="M4.7011 1.68843L4.8129 1.74433L4.90335 1.56343H4.7011V1.68843ZM2.9511 5.18843V5.31343H3.02835L3.0629 5.24433L2.9511 5.18843ZM4.04891 1.68843V1.56343H3.97166L3.93711 1.63253L4.04891 1.68843ZM2.29891 5.18843L2.18711 5.13253L2.09666 5.31343H2.29891V5.18843ZM0.166664 3.43843C0.166664 5.27938 1.65905 6.77176 3.5 6.77176V6.52176C1.79712 6.52176 0.416664 5.14131 0.416664 3.43843H0.166664ZM3.5 0.105095C1.65905 0.105095 0.166664 1.59748 0.166664 3.43843H0.416664C0.416664 1.73555 1.79712 0.355095 3.5 0.355095V0.105095ZM6.83333 3.43843C6.83333 1.59748 5.34095 0.105095 3.5 0.105095V0.355095C5.20288 0.355095 6.58333 1.73555 6.58333 3.43843H6.83333ZM3.5 6.77176C5.34095 6.77176 6.83333 5.27938 6.83333 3.43843H6.58333C6.58333 5.14131 5.20288 6.52176 3.5 6.52176V6.77176ZM6 3.43843C6 4.81914 4.88071 5.93843 3.5 5.93843V6.18843C5.01878 6.18843 6.25 4.95721 6.25 3.43843H6ZM3.5 0.938428C4.88071 0.938428 6 2.05772 6 3.43843H6.25C6.25 1.91965 5.01878 0.688428 3.5 0.688428V0.938428ZM0.999997 3.43843C0.999997 2.05772 2.11929 0.938428 3.5 0.938428V0.688428C1.98121 0.688428 0.749997 1.91964 0.749997 3.43843H0.999997ZM3.5 5.93843C2.11929 5.93843 0.999997 4.81914 0.999997 3.43843H0.749997C0.749997 4.95721 1.98121 6.18843 3.5 6.18843V5.93843ZM4.66666 5.06343C4.25245 5.06343 3.91666 4.72764 3.91666 4.31343H3.66666C3.66666 4.86571 4.11438 5.31343 4.66666 5.31343V5.06343ZM5.41666 4.31343C5.41666 4.72764 5.08088 5.06343 4.66666 5.06343V5.31343C5.21895 5.31343 5.66666 4.86571 5.66666 4.31343H5.41666ZM4.66666 3.56343C5.08088 3.56343 5.41666 3.89921 5.41666 4.31343H5.66666C5.66666 3.76114 5.21895 3.31343 4.66666 3.31343V3.56343ZM3.91666 4.31343C3.91666 3.89921 4.25245 3.56343 4.66666 3.56343V3.31343C4.11438 3.31343 3.66666 3.76114 3.66666 4.31343H3.91666ZM4.83333 4.31343C4.83333 4.40548 4.75871 4.48009 4.66666 4.48009V4.73009C4.89678 4.73009 5.08333 4.54355 5.08333 4.31343H4.83333ZM4.66666 4.14676C4.75871 4.14676 4.83333 4.22138 4.83333 4.31343H5.08333C5.08333 4.08331 4.89678 3.89676 4.66666 3.89676V4.14676ZM4.5 4.31343C4.5 4.22138 4.57462 4.14676 4.66666 4.14676V3.89676C4.43655 3.89676 4.25 4.08331 4.25 4.31343H4.5ZM4.66666 4.48009C4.57462 4.48009 4.5 4.40548 4.5 4.31343H4.25C4.25 4.54355 4.43655 4.73009 4.66666 4.73009V4.48009ZM2.33333 3.31343C1.91912 3.31343 1.58333 2.97764 1.58333 2.56343H1.33333C1.33333 3.11571 1.78105 3.56343 2.33333 3.56343V3.31343ZM3.08333 2.56343C3.08333 2.97764 2.74754 3.31343 2.33333 3.31343V3.56343C2.88562 3.56343 3.33333 3.11571 3.33333 2.56343H3.08333ZM2.33333 1.81343C2.74754 1.81343 3.08333 2.14921 3.08333 2.56343H3.33333C3.33333 2.01114 2.88562 1.56343 2.33333 1.56343V1.81343ZM1.58333 2.56343C1.58333 2.14921 1.91912 1.81343 2.33333 1.81343V1.56343C1.78105 1.56343 1.33333 2.01114 1.33333 2.56343H1.58333ZM2.5 2.56343C2.5 2.65548 2.42538 2.73009 2.33333 2.73009V2.98009C2.56345 2.98009 2.75 2.79355 2.75 2.56343H2.5ZM2.33333 2.39676C2.42538 2.39676 2.5 2.47138 2.5 2.56343H2.75C2.75 2.33331 2.56345 2.14676 2.33333 2.14676V2.39676ZM2.16666 2.56343C2.16666 2.47138 2.24128 2.39676 2.33333 2.39676V2.14676C2.10321 2.14676 1.91666 2.33331 1.91666 2.56343H2.16666ZM2.33333 2.73009C2.24128 2.73009 2.16666 2.65548 2.16666 2.56343H1.91666C1.91666 2.79355 2.10321 2.98009 2.33333 2.98009V2.73009ZM4.58929 1.63253L2.8393 5.13253L3.0629 5.24433L4.8129 1.74433L4.58929 1.63253ZM4.04891 1.81343H4.7011V1.56343H4.04891V1.81343ZM2.41072 5.24433L4.16072 1.74433L3.93711 1.63253L2.18711 5.13253L2.41072 5.24433ZM2.9511 5.06343H2.29891V5.31343H2.9511V5.06343Z" fill="white"/>
</svg>
